<mxfile host="app.diagrams.net" agent="Mozilla/5.0 (Windows NT 10.0; Win64; x64) AppleWebKit/537.36 (KHTML, like Gecko) Chrome/136.0.0.0 Safari/537.36" version="27.0.5">
  <diagram name="Σελίδα-1" id="O-57SSt9pnD7He-_IGeL">
    <mxGraphModel dx="1586" dy="1102" grid="1" gridSize="10" guides="1" tooltips="1" connect="1" arrows="1" fold="1" page="1" pageScale="1" pageWidth="827" pageHeight="1169" math="0" shadow="0" adaptiveColors="none">
      <root>
        <mxCell id="0" />
        <mxCell id="1" parent="0" />
        <mxCell id="s1mqWYItzY3ketY3jQhb-1" value="" style="shape=umlLifeline;perimeter=lifelinePerimeter;whiteSpace=wrap;html=1;container=1;dropTarget=0;collapsible=0;recursiveResize=0;outlineConnect=0;portConstraint=eastwest;newEdgeStyle={&quot;curved&quot;:0,&quot;rounded&quot;:0};participant=umlActor;" parent="1" vertex="1">
          <mxGeometry x="110" y="160" width="20" height="890" as="geometry" />
        </mxCell>
        <mxCell id="s1mqWYItzY3ketY3jQhb-5" value="" style="html=1;points=[[0,0,0,0,5],[0,1,0,0,-5],[1,0,0,0,5],[1,1,0,0,-5]];perimeter=orthogonalPerimeter;outlineConnect=0;targetShapes=umlLifeline;portConstraint=eastwest;newEdgeStyle={&quot;curved&quot;:0,&quot;rounded&quot;:0};" parent="s1mqWYItzY3ketY3jQhb-1" vertex="1">
          <mxGeometry x="5" y="40" width="10" height="850" as="geometry" />
        </mxCell>
        <mxCell id="s1mqWYItzY3ketY3jQhb-2" value=":ReviewCriteria" style="shape=umlLifeline;perimeter=lifelinePerimeter;whiteSpace=wrap;html=1;container=1;dropTarget=0;collapsible=0;recursiveResize=0;outlineConnect=0;portConstraint=eastwest;newEdgeStyle={&quot;curved&quot;:0,&quot;rounded&quot;:0};" parent="1" vertex="1">
          <mxGeometry x="300" y="160" width="100" height="880" as="geometry" />
        </mxCell>
        <mxCell id="s1mqWYItzY3ketY3jQhb-6" value="" style="html=1;points=[[0,0,0,0,5],[0,1,0,0,-5],[1,0,0,0,5],[1,1,0,0,-5]];perimeter=orthogonalPerimeter;outlineConnect=0;targetShapes=umlLifeline;portConstraint=eastwest;newEdgeStyle={&quot;curved&quot;:0,&quot;rounded&quot;:0};" parent="s1mqWYItzY3ketY3jQhb-2" vertex="1">
          <mxGeometry x="45" y="40" width="10" height="170" as="geometry" />
        </mxCell>
        <mxCell id="s1mqWYItzY3ketY3jQhb-8" value="loop" style="shape=umlFrame;whiteSpace=wrap;html=1;pointerEvents=0;" parent="s1mqWYItzY3ketY3jQhb-2" vertex="1">
          <mxGeometry x="-300" y="92" width="360" height="70" as="geometry" />
        </mxCell>
        <mxCell id="s1mqWYItzY3ketY3jQhb-33" value="" style="html=1;points=[[0,0,0,0,5],[0,1,0,0,-5],[1,0,0,0,5],[1,1,0,0,-5]];perimeter=orthogonalPerimeter;outlineConnect=0;targetShapes=umlLifeline;portConstraint=eastwest;newEdgeStyle={&quot;curved&quot;:0,&quot;rounded&quot;:0};" parent="s1mqWYItzY3ketY3jQhb-2" vertex="1">
          <mxGeometry x="45" y="385" width="10" height="155" as="geometry" />
        </mxCell>
        <mxCell id="AigPq1cH0oKoIdTONQSE-9" value="" style="html=1;points=[[0,0,0,0,5],[0,1,0,0,-5],[1,0,0,0,5],[1,1,0,0,-5]];perimeter=orthogonalPerimeter;outlineConnect=0;targetShapes=umlLifeline;portConstraint=eastwest;newEdgeStyle={&quot;curved&quot;:0,&quot;rounded&quot;:0};" parent="s1mqWYItzY3ketY3jQhb-2" vertex="1">
          <mxGeometry x="45" y="710" width="10" height="80" as="geometry" />
        </mxCell>
        <mxCell id="s1mqWYItzY3ketY3jQhb-12" value=":ViewSubject" style="shape=umlLifeline;perimeter=lifelinePerimeter;whiteSpace=wrap;html=1;container=1;dropTarget=0;collapsible=0;recursiveResize=0;outlineConnect=0;portConstraint=eastwest;newEdgeStyle={&quot;curved&quot;:0,&quot;rounded&quot;:0};" parent="1" vertex="1">
          <mxGeometry x="440" y="160" width="100" height="880" as="geometry" />
        </mxCell>
        <mxCell id="s1mqWYItzY3ketY3jQhb-15" value="alt" style="shape=umlFrame;whiteSpace=wrap;html=1;pointerEvents=0;" parent="1" vertex="1">
          <mxGeometry x="-120" y="210" width="740" height="310" as="geometry" />
        </mxCell>
        <mxCell id="s1mqWYItzY3ketY3jQhb-16" value="[User dont fill all criteria]" style="text;html=1;align=center;verticalAlign=middle;resizable=0;points=[];autosize=1;strokeColor=none;fillColor=none;" parent="1" vertex="1">
          <mxGeometry x="-120" y="380" width="150" height="30" as="geometry" />
        </mxCell>
        <mxCell id="s1mqWYItzY3ketY3jQhb-17" value="click(&quot;Υποβολή&quot;)" style="html=1;verticalAlign=bottom;endArrow=block;curved=0;rounded=0;exitX=1.1;exitY=0.201;exitDx=0;exitDy=0;exitPerimeter=0;" parent="1" target="s1mqWYItzY3ketY3jQhb-6" edge="1">
          <mxGeometry width="80" relative="1" as="geometry">
            <mxPoint x="126" y="350.00000000000006" as="sourcePoint" />
            <mxPoint x="285" y="350.00000000000006" as="targetPoint" />
          </mxGeometry>
        </mxCell>
        <mxCell id="s1mqWYItzY3ketY3jQhb-9" value="[If user wants&lt;div&gt;to comment review]&lt;/div&gt;" style="text;html=1;align=center;verticalAlign=middle;resizable=0;points=[];autosize=1;strokeColor=none;fillColor=none;" parent="1" vertex="1">
          <mxGeometry x="-10" y="280" width="130" height="40" as="geometry" />
        </mxCell>
        <mxCell id="s1mqWYItzY3ketY3jQhb-10" value="comment()" style="html=1;verticalAlign=bottom;endArrow=block;curved=0;rounded=0;entryX=0;entryY=0.512;entryDx=0;entryDy=0;entryPerimeter=0;" parent="1" source="s1mqWYItzY3ketY3jQhb-5" target="s1mqWYItzY3ketY3jQhb-6" edge="1">
          <mxGeometry width="80" relative="1" as="geometry">
            <mxPoint x="295" y="282" as="sourcePoint" />
            <mxPoint x="445" y="285" as="targetPoint" />
            <mxPoint as="offset" />
          </mxGeometry>
        </mxCell>
        <mxCell id="s1mqWYItzY3ketY3jQhb-19" value="" style="html=1;points=[[0,0,0,0,5],[0,1,0,0,-5],[1,0,0,0,5],[1,1,0,0,-5]];perimeter=orthogonalPerimeter;outlineConnect=0;targetShapes=umlLifeline;portConstraint=eastwest;newEdgeStyle={&quot;curved&quot;:0,&quot;rounded&quot;:0};" parent="1" vertex="1">
          <mxGeometry x="345" y="400" width="10" height="100" as="geometry" />
        </mxCell>
        <mxCell id="s1mqWYItzY3ketY3jQhb-20" value="[User fill all criteria]" style="text;html=1;align=center;verticalAlign=middle;resizable=0;points=[];autosize=1;strokeColor=none;fillColor=none;" parent="1" vertex="1">
          <mxGeometry x="-120" y="240" width="120" height="30" as="geometry" />
        </mxCell>
        <mxCell id="s1mqWYItzY3ketY3jQhb-21" value="" style="endArrow=none;dashed=1;html=1;rounded=0;exitX=-0.001;exitY=0.249;exitDx=0;exitDy=0;exitPerimeter=0;entryX=1.001;entryY=0.249;entryDx=0;entryDy=0;entryPerimeter=0;" parent="1" edge="1">
          <mxGeometry width="50" height="50" relative="1" as="geometry">
            <mxPoint x="-121.7600000000001" y="379.00000000000006" as="sourcePoint" />
            <mxPoint x="760.0000000000001" y="379.00000000000006" as="targetPoint" />
          </mxGeometry>
        </mxCell>
        <mxCell id="s1mqWYItzY3ketY3jQhb-22" value="Fill some criteria with grades" style="html=1;verticalAlign=bottom;endArrow=block;curved=0;rounded=0;entryX=0;entryY=0;entryDx=0;entryDy=5;entryPerimeter=0;" parent="1" target="s1mqWYItzY3ketY3jQhb-19" edge="1">
          <mxGeometry width="80" relative="1" as="geometry">
            <mxPoint x="125" y="405" as="sourcePoint" />
            <mxPoint x="220" y="430" as="targetPoint" />
            <mxPoint as="offset" />
          </mxGeometry>
        </mxCell>
        <mxCell id="s1mqWYItzY3ketY3jQhb-23" value="click(&quot;Υποβολή&quot;)" style="html=1;verticalAlign=bottom;endArrow=block;curved=0;rounded=0;entryX=-0.2;entryY=0.35;entryDx=0;entryDy=0;entryPerimeter=0;" parent="1" target="s1mqWYItzY3ketY3jQhb-19" edge="1">
          <mxGeometry width="80" relative="1" as="geometry">
            <mxPoint x="125" y="435" as="sourcePoint" />
            <mxPoint x="285" y="440.00000000000006" as="targetPoint" />
          </mxGeometry>
        </mxCell>
        <mxCell id="s1mqWYItzY3ketY3jQhb-24" value="display(&quot;Η αξιολόγηση πρέπει να&amp;nbsp;&lt;div&gt;περιέχει&amp;nbsp;&lt;span style=&quot;background-color: light-dark(#ffffff, var(--ge-dark-color, #121212)); color: light-dark(rgb(0, 0, 0), rgb(255, 255, 255));&quot;&gt;βαθμολογία σε όλα τα κριτήρια&quot;)&lt;/span&gt;&lt;/div&gt;" style="html=1;verticalAlign=bottom;endArrow=open;dashed=1;endSize=8;curved=0;rounded=0;entryX=1;entryY=0.396;entryDx=0;entryDy=0;entryPerimeter=0;" parent="1" source="s1mqWYItzY3ketY3jQhb-19" edge="1">
          <mxGeometry x="-0.0455" relative="1" as="geometry">
            <mxPoint x="330" y="490.00000000000006" as="sourcePoint" />
            <mxPoint x="125" y="479.28" as="targetPoint" />
            <mxPoint as="offset" />
          </mxGeometry>
        </mxCell>
        <mxCell id="s1mqWYItzY3ketY3jQhb-7" value="Fill criteria with grades" style="html=1;verticalAlign=bottom;endArrow=block;curved=0;rounded=0;entryX=0;entryY=0.235;entryDx=0;entryDy=0;entryPerimeter=0;" parent="1" source="s1mqWYItzY3ketY3jQhb-5" target="s1mqWYItzY3ketY3jQhb-6" edge="1">
          <mxGeometry width="80" relative="1" as="geometry">
            <mxPoint x="170" y="240" as="sourcePoint" />
            <mxPoint x="327" y="240" as="targetPoint" />
          </mxGeometry>
        </mxCell>
        <mxCell id="s1mqWYItzY3ketY3jQhb-26" value="alt" style="shape=umlFrame;whiteSpace=wrap;html=1;pointerEvents=0;" parent="1" vertex="1">
          <mxGeometry x="-120" y="530" width="740" height="220" as="geometry" />
        </mxCell>
        <mxCell id="s1mqWYItzY3ketY3jQhb-27" value="[User use bad phrase]" style="text;html=1;align=center;verticalAlign=middle;resizable=0;points=[];autosize=1;strokeColor=none;fillColor=none;" parent="1" vertex="1">
          <mxGeometry x="-60" y="530" width="140" height="30" as="geometry" />
        </mxCell>
        <mxCell id="s1mqWYItzY3ketY3jQhb-28" value="loop" style="shape=umlFrame;whiteSpace=wrap;html=1;pointerEvents=0;" parent="1" vertex="1">
          <mxGeometry y="562" width="360" height="68" as="geometry" />
        </mxCell>
        <mxCell id="s1mqWYItzY3ketY3jQhb-29" value="click(&quot;Υποβολή&quot;)" style="html=1;verticalAlign=bottom;endArrow=block;curved=0;rounded=0;exitX=1.1;exitY=0.201;exitDx=0;exitDy=0;exitPerimeter=0;" parent="1" edge="1">
          <mxGeometry width="80" relative="1" as="geometry">
            <mxPoint x="126" y="650" as="sourcePoint" />
            <mxPoint x="345" y="650" as="targetPoint" />
          </mxGeometry>
        </mxCell>
        <mxCell id="s1mqWYItzY3ketY3jQhb-30" value="[If user wants&lt;div&gt;to comment review]&lt;/div&gt;" style="text;html=1;align=center;verticalAlign=middle;resizable=0;points=[];autosize=1;strokeColor=none;fillColor=none;" parent="1" vertex="1">
          <mxGeometry x="-10" y="590" width="130" height="40" as="geometry" />
        </mxCell>
        <mxCell id="s1mqWYItzY3ketY3jQhb-31" value="comment()" style="html=1;verticalAlign=bottom;endArrow=block;curved=0;rounded=0;entryX=0;entryY=0.512;entryDx=0;entryDy=0;entryPerimeter=0;" parent="1" edge="1">
          <mxGeometry width="80" relative="1" as="geometry">
            <mxPoint x="125" y="597" as="sourcePoint" />
            <mxPoint x="345" y="597" as="targetPoint" />
            <mxPoint as="offset" />
          </mxGeometry>
        </mxCell>
        <mxCell id="s1mqWYItzY3ketY3jQhb-32" value="Fill criteria with grades" style="html=1;verticalAlign=bottom;endArrow=block;curved=0;rounded=0;entryX=0;entryY=0.235;entryDx=0;entryDy=0;entryPerimeter=0;" parent="1" edge="1">
          <mxGeometry width="80" relative="1" as="geometry">
            <mxPoint x="125" y="550" as="sourcePoint" />
            <mxPoint x="345" y="550" as="targetPoint" />
          </mxGeometry>
        </mxCell>
        <mxCell id="s1mqWYItzY3ketY3jQhb-34" value="display message" style="html=1;verticalAlign=bottom;endArrow=open;dashed=1;endSize=8;curved=0;rounded=0;entryX=1;entryY=0.396;entryDx=0;entryDy=0;entryPerimeter=0;" parent="1" edge="1">
          <mxGeometry x="-0.0455" relative="1" as="geometry">
            <mxPoint x="345" y="700" as="sourcePoint" />
            <mxPoint x="125" y="700" as="targetPoint" />
            <mxPoint as="offset" />
          </mxGeometry>
        </mxCell>
        <mxCell id="s1mqWYItzY3ketY3jQhb-35" value="24 hours ban" style="html=1;verticalAlign=bottom;endArrow=open;dashed=1;endSize=8;curved=0;rounded=0;" parent="1" edge="1">
          <mxGeometry x="0.09" y="-30" relative="1" as="geometry">
            <mxPoint x="110" y="700" as="sourcePoint" />
            <mxPoint x="113" y="719" as="targetPoint" />
            <Array as="points">
              <mxPoint x="70" y="700" />
              <mxPoint x="70" y="719" />
            </Array>
            <mxPoint as="offset" />
          </mxGeometry>
        </mxCell>
        <mxCell id="s1mqWYItzY3ketY3jQhb-36" value="" style="html=1;points=[[0,0,0,0,5],[0,1,0,0,-5],[1,0,0,0,5],[1,1,0,0,-5]];perimeter=orthogonalPerimeter;outlineConnect=0;targetShapes=umlLifeline;portConstraint=eastwest;newEdgeStyle={&quot;curved&quot;:0,&quot;rounded&quot;:0};" parent="1" vertex="1">
          <mxGeometry x="485" y="720" width="10" height="20" as="geometry" />
        </mxCell>
        <mxCell id="s1mqWYItzY3ketY3jQhb-39" value="redirect()" style="html=1;verticalAlign=bottom;endArrow=block;curved=0;rounded=0;" parent="1" edge="1">
          <mxGeometry width="80" relative="1" as="geometry">
            <mxPoint x="125" y="719.5" as="sourcePoint" />
            <mxPoint x="485" y="720" as="targetPoint" />
          </mxGeometry>
        </mxCell>
        <mxCell id="s1mqWYItzY3ketY3jQhb-40" value="display()" style="html=1;verticalAlign=bottom;endArrow=open;dashed=1;endSize=8;curved=0;rounded=0;exitX=0;exitY=1;exitDx=0;exitDy=0;exitPerimeter=0;" parent="1" source="s1mqWYItzY3ketY3jQhb-36" target="s1mqWYItzY3ketY3jQhb-5" edge="1">
          <mxGeometry relative="1" as="geometry">
            <mxPoint x="430" y="740" as="sourcePoint" />
            <mxPoint x="350" y="740" as="targetPoint" />
          </mxGeometry>
        </mxCell>
        <mxCell id="s1mqWYItzY3ketY3jQhb-41" value="alt" style="shape=umlFrame;whiteSpace=wrap;html=1;pointerEvents=0;" parent="1" vertex="1">
          <mxGeometry x="-120" y="760" width="740" height="70" as="geometry" />
        </mxCell>
        <mxCell id="s1mqWYItzY3ketY3jQhb-42" value="[User cancel review]" style="text;html=1;align=center;verticalAlign=middle;resizable=0;points=[];autosize=1;strokeColor=none;fillColor=none;" parent="1" vertex="1">
          <mxGeometry x="-120" y="790" width="130" height="30" as="geometry" />
        </mxCell>
        <mxCell id="s1mqWYItzY3ketY3jQhb-44" value="click(ακύρωση)" style="html=1;verticalAlign=bottom;endArrow=block;curved=0;rounded=0;entryX=0;entryY=0.26;entryDx=0;entryDy=0;entryPerimeter=0;" parent="1" source="s1mqWYItzY3ketY3jQhb-5" target="s1mqWYItzY3ketY3jQhb-45" edge="1">
          <mxGeometry width="80" relative="1" as="geometry">
            <mxPoint x="130" y="804.5" as="sourcePoint" />
            <mxPoint x="360" y="804.5" as="targetPoint" />
          </mxGeometry>
        </mxCell>
        <mxCell id="s1mqWYItzY3ketY3jQhb-45" value="" style="html=1;points=[[0,0,0,0,5],[0,1,0,0,-5],[1,0,0,0,5],[1,1,0,0,-5]];perimeter=orthogonalPerimeter;outlineConnect=0;targetShapes=umlLifeline;portConstraint=eastwest;newEdgeStyle={&quot;curved&quot;:0,&quot;rounded&quot;:0};" parent="1" vertex="1">
          <mxGeometry x="345" y="770" width="10" height="30" as="geometry" />
        </mxCell>
        <mxCell id="s1mqWYItzY3ketY3jQhb-46" value="display()" style="html=1;verticalAlign=bottom;endArrow=open;dashed=1;endSize=8;curved=0;rounded=0;exitX=0;exitY=0;exitDx=0;exitDy=5;exitPerimeter=0;entryX=1;entryY=0;entryDx=0;entryDy=5;entryPerimeter=0;" parent="1" source="s1mqWYItzY3ketY3jQhb-6" target="s1mqWYItzY3ketY3jQhb-5" edge="1">
          <mxGeometry relative="1" as="geometry">
            <mxPoint x="250" y="200" as="sourcePoint" />
            <mxPoint x="170" y="200" as="targetPoint" />
          </mxGeometry>
        </mxCell>
        <mxCell id="s1mqWYItzY3ketY3jQhb-48" value="" style="html=1;points=[[0,0,0,0,5],[0,1,0,0,-5],[1,0,0,0,5],[1,1,0,0,-5]];perimeter=orthogonalPerimeter;outlineConnect=0;targetShapes=umlLifeline;portConstraint=eastwest;newEdgeStyle={&quot;curved&quot;:0,&quot;rounded&quot;:0};" parent="1" vertex="1">
          <mxGeometry x="485" y="790" width="10" height="30" as="geometry" />
        </mxCell>
        <mxCell id="s1mqWYItzY3ketY3jQhb-49" value="redirect()" style="html=1;verticalAlign=bottom;endArrow=block;curved=0;rounded=0;" parent="1" source="s1mqWYItzY3ketY3jQhb-45" edge="1">
          <mxGeometry width="80" relative="1" as="geometry">
            <mxPoint x="405" y="790" as="sourcePoint" />
            <mxPoint x="485" y="790" as="targetPoint" />
          </mxGeometry>
        </mxCell>
        <mxCell id="s1mqWYItzY3ketY3jQhb-50" value="display()" style="html=1;verticalAlign=bottom;endArrow=open;dashed=1;endSize=8;curved=0;rounded=0;exitX=0;exitY=1;exitDx=0;exitDy=-5;exitPerimeter=0;" parent="1" source="s1mqWYItzY3ketY3jQhb-48" target="s1mqWYItzY3ketY3jQhb-5" edge="1">
          <mxGeometry relative="1" as="geometry">
            <mxPoint x="460" y="819" as="sourcePoint" />
            <mxPoint x="380" y="819" as="targetPoint" />
          </mxGeometry>
        </mxCell>
        <mxCell id="AigPq1cH0oKoIdTONQSE-4" value="[If user is banned]" style="text;html=1;align=center;verticalAlign=middle;resizable=0;points=[];autosize=1;strokeColor=none;fillColor=none;" parent="1" vertex="1">
          <mxGeometry x="-120" y="870" width="120" height="30" as="geometry" />
        </mxCell>
        <mxCell id="AigPq1cH0oKoIdTONQSE-10" value=":BanTimer" style="shape=umlLifeline;perimeter=lifelinePerimeter;whiteSpace=wrap;html=1;container=1;dropTarget=0;collapsible=0;recursiveResize=0;outlineConnect=0;portConstraint=eastwest;newEdgeStyle={&quot;curved&quot;:0,&quot;rounded&quot;:0};" parent="1" vertex="1">
          <mxGeometry x="1330" y="140" width="100" height="760" as="geometry" />
        </mxCell>
        <mxCell id="AigPq1cH0oKoIdTONQSE-12" value="check ban time" style="html=1;verticalAlign=bottom;endArrow=block;curved=0;rounded=0;" parent="1" source="AigPq1cH0oKoIdTONQSE-9" target="AigPq1cH0oKoIdTONQSE-11" edge="1">
          <mxGeometry width="80" relative="1" as="geometry">
            <mxPoint x="331" y="950" as="sourcePoint" />
            <mxPoint x="411" y="950" as="targetPoint" />
          </mxGeometry>
        </mxCell>
        <mxCell id="AigPq1cH0oKoIdTONQSE-13" value="display ban time left" style="html=1;verticalAlign=bottom;endArrow=open;dashed=1;endSize=8;curved=0;rounded=0;" parent="1" source="AigPq1cH0oKoIdTONQSE-11" edge="1">
          <mxGeometry relative="1" as="geometry">
            <mxPoint x="540" y="970" as="sourcePoint" />
            <mxPoint x="125" y="970" as="targetPoint" />
          </mxGeometry>
        </mxCell>
        <mxCell id="AigPq1cH0oKoIdTONQSE-14" value="frame" style="shape=umlFrame;whiteSpace=wrap;html=1;pointerEvents=0;" parent="1" vertex="1">
          <mxGeometry x="-120" y="840" width="740" height="210" as="geometry" />
        </mxCell>
        <mxCell id="AigPq1cH0oKoIdTONQSE-15" value="click(&quot;Υποβολή&quot;)" style="html=1;verticalAlign=bottom;endArrow=block;curved=0;rounded=0;exitX=1.1;exitY=0.201;exitDx=0;exitDy=0;exitPerimeter=0;" parent="1" edge="1">
          <mxGeometry width="80" relative="1" as="geometry">
            <mxPoint x="126" y="899" as="sourcePoint" />
            <mxPoint x="345" y="899" as="targetPoint" />
          </mxGeometry>
        </mxCell>
        <mxCell id="AigPq1cH0oKoIdTONQSE-16" value="Fill criteria with grades" style="html=1;verticalAlign=bottom;endArrow=block;curved=0;rounded=0;entryX=0;entryY=0.235;entryDx=0;entryDy=0;entryPerimeter=0;" parent="1" edge="1">
          <mxGeometry width="80" relative="1" as="geometry">
            <mxPoint x="125" y="880" as="sourcePoint" />
            <mxPoint x="345" y="880" as="targetPoint" />
          </mxGeometry>
        </mxCell>
        <mxCell id="AigPq1cH0oKoIdTONQSE-17" value="display message" style="html=1;verticalAlign=bottom;endArrow=open;dashed=1;endSize=8;curved=0;rounded=0;entryX=1;entryY=0.396;entryDx=0;entryDy=0;entryPerimeter=0;" parent="1" edge="1">
          <mxGeometry x="-0.0455" relative="1" as="geometry">
            <mxPoint x="345" y="930" as="sourcePoint" />
            <mxPoint x="125" y="930" as="targetPoint" />
            <mxPoint as="offset" />
          </mxGeometry>
        </mxCell>
        <mxCell id="AeMh7L7NLlHwI84fFtWY-1" value=":BanTimer" style="shape=umlLifeline;perimeter=lifelinePerimeter;whiteSpace=wrap;html=1;container=1;dropTarget=0;collapsible=0;recursiveResize=0;outlineConnect=0;portConstraint=eastwest;newEdgeStyle={&quot;curved&quot;:0,&quot;rounded&quot;:0};" vertex="1" parent="1">
          <mxGeometry x="550" y="160" width="100" height="920" as="geometry" />
        </mxCell>
        <mxCell id="AigPq1cH0oKoIdTONQSE-11" value="" style="html=1;points=[[0,0,0,0,5],[0,1,0,0,-5],[1,0,0,0,5],[1,1,0,0,-5]];perimeter=orthogonalPerimeter;outlineConnect=0;targetShapes=umlLifeline;portConstraint=eastwest;newEdgeStyle={&quot;curved&quot;:0,&quot;rounded&quot;:0};" parent="AeMh7L7NLlHwI84fFtWY-1" vertex="1">
          <mxGeometry x="45" y="780" width="10" height="30" as="geometry" />
        </mxCell>
      </root>
    </mxGraphModel>
  </diagram>
</mxfile>
